<svg width="75" height="56" viewBox="0 0 75 56" fill="none" xmlns="http://www.w3.org/2000/svg">
<path d="M66.5286 43.0851C64.7651 42.6621 62.4604 42.7228 62.4604 41.6265C62.5959 40.8371 63.2721 40.656 64.3594 40.656C65.9878 40.656 66.1228 41.5709 66.1228 42.1144H68.8333C68.7026 39.9872 66.9388 38.5892 64.224 38.5892C61.3779 38.5892 59.745 40.1081 59.745 42.0543C59.745 43.146 60.2908 44.1816 61.2379 44.6693C61.9192 44.9712 62.8661 45.2176 64.0886 45.3938C65.1707 45.5795 66.2578 45.64 66.3932 46.4901C66.3932 47.0383 65.7169 47.7675 64.4944 47.7675C62.7307 47.707 62.3252 46.7365 62.3252 46.007H59.4744C59.6098 48.1947 61.3779 49.7131 64.3594 49.7131C67.0744 49.7131 69.2439 48.6823 69.2439 46.007C69.2439 44.5432 68.157 43.512 66.5286 43.0851Z" fill="white"/>
<path d="M26.7935 34.9263L21.7734 26.3523L12.4146 31.7632L14.1782 34.9263H26.7935Z" fill="white"/>
<path d="M33.4356 38.5677H30.7367V49.3901H33.4356V38.5677Z" fill="white"/>
<path d="M14.3085 39.578C13.3617 38.9136 12.2742 38.6073 11.052 38.6073C8.0708 38.6073 5.49548 41.0407 5.49548 44.1392C5.49548 47.2371 8.07061 49.7313 11.052 49.7313C12.2744 49.7313 13.4969 49.4246 14.3085 48.8167V49.4851H17.0237V38.7281H14.3085V39.578ZM11.1874 47.2369C9.56386 47.2369 8.0708 45.8392 8.0708 44.139C8.0708 42.4995 9.56367 41.0407 11.1874 41.0407C12.9559 41.0407 14.3085 42.4991 14.3085 44.139C14.3085 45.839 12.9557 47.2369 11.1874 47.2369Z" fill="white"/>
<path d="M59.8913 34.9241L43.6134 6.84229L34.2546 12.3135L47.2757 34.9241H59.8913Z" fill="white"/>
<path d="M26.7934 39.578C25.8415 38.9137 24.7545 38.6073 23.5367 38.6073C20.4156 38.6073 17.9756 41.0407 17.9756 44.1392C17.9756 47.2371 20.4156 49.7314 23.5367 49.7314C24.7545 49.7314 25.8415 49.4247 26.7934 48.8167V49.4851H29.5039V35.022H26.7934V39.578ZM23.6721 47.2369C21.9088 47.2369 20.551 45.8392 20.551 44.139C20.551 42.4995 21.9086 41.0407 23.6721 41.0407C25.2956 41.0407 26.7934 42.4991 26.7934 44.139C26.7934 45.839 25.2956 47.2369 23.6721 47.2369Z" fill="white"/>
<path d="M32.8971 16.7534L23.403 22.0993L30.7277 34.9231V37.5986H33.4384V34.9231H43.3431L32.8971 16.7534Z" fill="white"/>
<path d="M67.485 37.6827C68.2967 37.6827 68.8427 37.0744 68.8427 36.3451C68.8427 35.6158 68.2967 35.0074 67.485 35.0074C66.8038 35.0074 66.1277 35.6158 66.1277 36.3451C66.1277 37.0744 66.8038 37.6827 67.485 37.6827ZM67.485 35.1934C68.1613 35.1934 68.5672 35.7364 68.5672 36.3451C68.5672 36.9536 68.1613 37.5013 67.485 37.5013C66.8038 37.5013 66.3979 36.9533 66.3979 36.3451C66.3979 35.7369 66.8038 35.1934 67.485 35.1934Z" fill="white"/>
<path d="M67.2236 36.4708H67.494L67.7646 37.0793H68.0351L67.7646 36.4708C67.9 36.4103 68.0351 36.2895 68.0351 36.0478C68.0351 35.8064 67.7646 35.6205 67.6292 35.6205H67.0178V37.0789H67.2233L67.2236 36.4708ZM67.2236 35.8064H67.494C67.7646 35.8064 67.7646 35.9227 67.7646 36.0481C67.7646 36.2294 67.7646 36.2897 67.494 36.2897H67.2236V35.8064Z" fill="white"/>
<path d="M55.8075 39.578C54.8601 38.9136 53.7731 38.6073 52.5508 38.6073C49.4346 38.6073 46.9944 41.0407 46.9944 44.1392C46.9944 47.2371 49.4346 49.7313 52.5508 49.7313C53.7735 49.7313 54.8601 49.4246 55.8075 48.8167V49.4851H58.3873V38.7281H55.8075V39.578ZM52.6909 47.2369C50.9274 47.2369 49.5698 45.8392 49.5698 44.139C49.5698 42.4995 50.9273 41.0407 52.6909 41.0407C54.3193 41.0407 55.8075 42.4991 55.8075 44.139C55.8075 45.839 54.3193 47.2369 52.6909 47.2369Z" fill="white"/>
<path d="M43.3414 39.578C42.525 38.9137 41.4381 38.6073 40.2202 38.6073C37.0991 38.6073 34.5238 41.0407 34.5238 44.1392C34.5238 47.2371 37.0991 49.7314 40.2202 49.7314C41.4379 49.7314 42.5248 49.4247 43.3414 48.8167V49.4851H46.0521V35.022H43.3414V39.578ZM40.2204 47.2369C38.592 47.2369 37.0993 45.8392 37.0993 44.139C37.0993 42.4995 38.5922 41.0407 40.2204 41.0407C41.9839 41.0407 43.3416 42.4991 43.3416 44.139C43.3414 45.839 41.9839 47.2369 40.2204 47.2369Z" fill="white"/>
</svg>
