<svg width="151" height="40" viewBox="0 0 151 40" fill="none" xmlns="http://www.w3.org/2000/svg">
<path d="M48.9812 16.1193L43.9898 15.8211C43.9898 15.8211 41.1819 16.4175 41.4936 17.9103L41.5329 24.5148C41.5329 24.5148 41.5329 25.858 43.8728 25.7461L48.6695 25.6342" stroke="#FFFEFE" stroke-width="3"/>
<path d="M58.0291 25.6342C58.0291 25.6342 54.0513 26.6416 54.1683 22.9476V18.8059C54.1683 18.8059 53.4663 16.4551 57.7951 16.4551H59.55C59.55 16.4551 61.6559 15.8954 61.6559 20.5969C61.6559 20.5969 62.9428 25.8581 58.0291 25.6342Z" stroke="#FFFEFE" stroke-width="3"/>
<path d="M68.3245 27.0894L68.2075 16.3432L72.3023 16.4757C72.3023 16.4757 74.7592 15.8122 74.7592 19.6593L74.8762 26.5583" stroke="#FFFEFE" stroke-width="3"/>
<path d="M80.7259 15.9904L84.8207 24.4028L89.2664 15.8954" stroke="#FFFEFE" stroke-width="3"/>
<path d="M102.253 16.5671H97.3391C97.3391 16.5671 94.6482 16.5671 94.6482 19.1417V23.8431C94.6482 23.8431 95.2332 25.97 97.573 25.97L102.253 26.0819" stroke="#FFFEFE" stroke-width="3"/>
<path d="M94.5312 20.9327L102.136 21.0446" stroke="#FFFEFE" stroke-width="3"/>
<path d="M108.336 26.5297V16.1193H113.367C113.367 16.1193 115.356 17.1268 115.356 18.582C115.356 18.582 114.42 21.1566 112.782 21.2685H108.921" stroke="#FFFEFE" stroke-width="3"/>
<path d="M112.197 21.2686L115.239 26.3058" stroke="#FFFEFE" stroke-width="3"/>
<path d="M128.927 16.5671L123.897 16.4551C123.897 16.4551 121.323 16.5671 121.44 19.0297C121.44 19.0297 121.791 21.4924 124.014 21.4924C124.014 21.4924 128.459 20.485 128.576 23.3954C128.576 23.3954 128.81 25.8581 125.301 25.97L120.738 25.7461" stroke="#FFFEFE" stroke-width="3"/>
<path d="M142.525 16.5868L137.611 16.5617C137.611 16.5617 134.92 16.5474 134.905 19.122L134.88 23.8234C134.88 23.8234 135.453 25.953 137.793 25.9655L142.472 26.1016" stroke="#FFFEFE" stroke-width="3"/>
<path d="M134.779 20.913L142.384 21.0635" stroke="#FFFEFE" stroke-width="3"/>
<path d="M17.4321 22.164L15.3262 29.1043L21.5269 24.7386L27.1426 29.1043L25.6217 22.276L31.2374 17.9103L23.9838 17.3506L21.5269 11.082L18.602 17.4626H11.4654L17.4321 22.164Z" fill="#FFFEFE" stroke="#FFFEFE"/>
<path d="M21.4689 34.7021C29.1259 34.7021 35.3331 28.5626 35.3331 20.9891C35.3331 13.4156 29.1259 7.27606 21.4689 7.27606C13.8119 7.27606 7.60461 13.4156 7.60461 20.9891C7.60461 28.5626 13.8119 34.7021 21.4689 34.7021Z" stroke="#FFFEFE" stroke-width="2"/>
</svg>
