<svg width="133" height="38" viewBox="0 0 133 38" fill="none" xmlns="http://www.w3.org/2000/svg">
<g clip-path="url(#clip0)">
<path d="M128.512 28.5946C127.354 29.9613 125.293 30.1294 123.938 28.9813C123.607 28.7063 123.335 28.3688 123.136 27.9884C122.938 27.608 122.817 27.1923 122.781 26.7652C122.745 26.338 122.794 25.908 122.926 25.5C123.058 25.0919 123.269 24.7139 123.549 24.3877C125.21 22.4293 126.126 19.9526 126.138 17.3903C126.129 11.3803 121.232 6.5086 115.22 6.52895C113.784 6.51542 112.36 6.78977 111.033 7.33565C109.706 7.88152 108.503 8.68773 107.496 9.70617C105.432 11.7414 104.297 14.4679 104.303 17.3903C104.298 18.8113 104.577 20.2192 105.126 21.5314C105.674 22.8436 106.48 24.0338 107.496 25.0322C108.503 26.0508 109.706 26.857 111.033 27.4028C112.36 27.9485 113.784 28.2226 115.22 28.2087C116.301 28.229 117.374 28.0715 118.414 27.7798C120.127 27.2363 121.95 28.2034 122.471 29.9266C122.597 30.3324 122.642 30.7592 122.601 31.1822C122.561 31.6052 122.437 32.0161 122.237 32.3912C122.036 32.7663 121.763 33.0981 121.433 33.3677C121.102 33.6372 120.722 33.8391 120.313 33.9616C118.663 34.4685 116.947 34.7289 115.22 34.7343C105.594 34.7252 97.7672 26.9393 97.7862 17.3903C97.7672 12.7334 99.582 8.37498 102.879 5.11182C106.173 1.81851 110.554 0.0131874 115.22 0.00338812C119.873 0.0139412 124.255 1.81851 127.563 5.11182C130.844 8.37498 132.659 12.7334 132.654 17.3903C132.655 21.496 131.187 25.4678 128.512 28.5946V28.5946Z" fill="white"/>
<path d="M96.4488 12.7967C94.9221 13.7473 92.9126 13.2618 91.9609 11.7233C89.9735 8.46018 86.4842 6.50937 82.6396 6.52821C79.7277 6.50937 76.9871 7.63854 74.9155 9.70543C72.8629 11.7407 71.7271 14.4679 71.7217 17.3896C71.7212 18.8099 72.0031 20.2164 72.5512 21.5279C73.0993 22.8395 73.9029 24.0302 74.9155 25.0315C76.9863 27.0991 79.7277 28.2283 82.6396 28.208C86.2758 28.2283 89.6605 26.4373 91.7018 23.4433C91.9404 23.0883 92.2477 22.7841 92.6056 22.5484C92.9635 22.3127 93.365 22.1502 93.7867 22.0703C94.2083 21.9904 94.6418 21.9947 95.0617 22.083C95.4817 22.1714 95.8798 22.3419 96.2329 22.5847C97.7241 23.5699 98.1166 25.5885 97.0959 27.0924C95.4975 29.4445 93.3438 31.3709 90.8234 32.703C88.303 34.0352 85.4928 34.7323 82.6388 34.7335C73.0235 34.7252 65.1979 26.9393 65.2062 17.3903C65.1979 12.7334 67.0126 8.375 70.298 5.11184C73.6031 1.81929 77.9842 0.0132056 82.6403 0.00340633C88.7823 0.0139594 94.3553 3.13013 97.5725 8.33203C98.4894 9.88258 98.0022 11.8809 96.4488 12.7967V12.7967Z" fill="white"/>
<path d="M63.6953 12.7967C63.3307 13.0226 62.9246 13.1742 62.5006 13.2425C62.0766 13.3108 61.6431 13.2946 61.2255 13.1947C60.8079 13.0948 60.4143 12.9133 60.0679 12.6607C59.7214 12.4081 59.4289 12.0894 59.2074 11.7233C57.1995 8.46016 53.711 6.50859 49.8861 6.52819C46.953 6.50859 44.2116 7.63852 42.162 9.70542C40.0889 11.7406 38.9531 14.4671 38.9682 17.3896C38.9583 18.8113 39.236 20.2205 39.7846 21.5333C40.3333 22.8462 41.1418 24.0358 42.162 25.0315C44.2124 27.0991 46.9537 28.2283 49.8861 28.2079C51.6679 28.2161 53.4241 27.7853 54.9979 26.9539C56.5716 26.1225 57.914 24.9164 58.9051 23.4432C59.9325 21.9515 61.9617 21.561 63.4362 22.5847C64.9501 23.5699 65.3434 25.5878 64.3424 27.0923C62.7406 29.441 60.5863 31.365 58.0669 32.6968C55.5474 34.0286 52.7391 34.728 49.8861 34.7343C40.2495 34.7252 32.4231 26.9393 32.4088 17.3903C32.4231 12.7334 34.2379 8.37498 37.5437 5.11182C40.8284 1.81851 45.2087 0.0131874 49.8861 0.00338812C56.0069 0.0139412 61.5806 3.13011 64.7743 8.33201C65.7154 9.88256 65.2274 11.8809 63.6953 12.7967V12.7967Z" fill="white"/>
<path d="M31.2434 12.7962C29.7136 13.7467 27.7042 13.2613 26.7555 11.7228C24.765 8.45965 21.2765 6.50884 17.4342 6.52768C15.6122 6.51004 13.8156 6.95304 12.2128 7.81516L29.8189 22.9279C31.1252 24.0646 31.3321 25.9958 30.294 27.3496C28.5776 29.6229 26.3263 31.4421 23.7379 32.6473C21.1495 33.8525 18.3031 34.407 15.449 34.2619C13.4797 34.1465 11.5619 33.7199 9.75249 32.9736C8.08098 32.302 7.2816 30.4062 7.98324 28.766C8.13969 28.3696 8.37371 28.0081 8.67171 27.7024C8.96972 27.3967 9.32578 27.1529 9.71924 26.9851C10.1127 26.8174 10.5357 26.7291 10.9638 26.7252C11.3918 26.7214 11.8164 26.8022 12.2128 26.9629C13.354 27.4274 14.5638 27.7032 15.7945 27.7793C18.3828 27.8976 20.8923 27.1084 22.9147 25.5895L7.68167 12.4954C6.9119 14.0131 6.51265 15.6899 6.51631 17.3898C6.51803 19.3749 7.07048 21.321 8.11281 23.0138C9.04176 24.5402 8.55379 26.5385 7.03383 27.4785C5.4737 28.4049 3.46502 27.9202 2.54591 26.4051C0.872462 23.6934 -0.00908331 20.5718 8.58759e-06 17.3898C-0.0113571 12.7329 1.80336 8.37447 5.09182 5.11131C8.39392 1.81876 12.7758 0.0126799 17.4342 0.00288062C23.5739 0.0134337 29.1461 3.1296 32.3224 8.3315C33.2809 9.88205 32.7929 11.8803 31.2434 12.7962V12.7962ZM125.837 34.5189C125.853 36.524 127.494 38.0074 129.418 37.9961C131.352 38.0082 132.993 36.524 133 34.5189C132.993 32.4799 131.352 30.9965 129.418 30.9987C127.494 30.9965 125.853 32.4807 125.837 34.5189V34.5189Z" fill="white"/>
<path d="M129.418 31.6007C131.027 31.5811 132.285 32.8241 132.267 34.5201C132.285 36.1725 131.027 37.4245 129.418 37.4396C127.819 37.4245 126.561 36.1725 126.57 34.5201C126.561 32.8241 127.819 31.5804 129.418 31.6007Z" fill="white"/>
<path d="M128.685 32.5015H128.081V36.5373H129.634C130.579 36.5237 131.055 36.1717 131.059 35.378C131.055 34.6506 130.598 34.3355 129.98 34.2624L131.144 32.5015H130.454L129.375 34.2194H128.685V32.5015Z" fill="white"/>
<path d="M129.418 34.7342C129.945 34.7531 130.411 34.79 130.411 35.4209C130.411 35.9124 129.954 36.0051 129.505 36.0225H128.684V34.7342H129.418Z" fill="white"/>
</g>
<defs>
<clipPath id="clip0">
<rect width="133" height="38" fill="white" transform="matrix(1 0 0 -1 0 38)"/>
</clipPath>
</defs>
</svg>
