<svg width="147" height="53" viewBox="0 0 147 53" fill="none" xmlns="http://www.w3.org/2000/svg">
<path d="M16.2152 52.9785C11.8352 52.8024 8.25172 51.59 5.44972 49.3381C4.91497 48.9079 3.64072 47.618 3.21322 47.074C2.07697 45.6286 1.30447 44.2219 0.789224 42.6612C-0.796274 37.8569 0.0197246 31.5526 3.12322 24.6338C5.78047 18.7103 9.88071 12.8355 17.0342 4.69884C18.088 3.50157 21.2259 0 21.2462 0C21.2537 0 21.0827 0.299704 20.8674 0.664654C19.0074 3.81643 17.4159 7.52889 16.549 10.7429C15.1562 15.9 15.3242 20.3257 17.0409 23.7574C18.2252 26.1216 20.2554 28.1694 22.5384 29.3015C26.5352 31.2825 32.3867 31.4464 39.5327 29.781C40.0247 29.6657 64.4041 23.1186 93.7096 15.2315C123.015 7.34377 146.996 0.895312 147 0.900624C147.008 0.907452 78.9151 30.3842 43.5669 45.6764C37.9689 48.0975 36.4719 48.7091 33.8402 49.6438C27.1127 52.0338 21.0864 53.1742 16.2152 52.9785Z" fill="white"/>
</svg>
