<svg width="107" height="55" viewBox="0 0 107 55" fill="none" xmlns="http://www.w3.org/2000/svg">
<g clip-path="url(#clip0)">
<path d="M1.90735e-06 39.8172V26.8607H7.17047C11.2031 26.8607 14.7438 27.0781 15.2615 27.3574C16.119 27.8202 16.1821 28.4426 16.1821 36.4407C16.1821 46.8274 16.3331 46.5353 10.9637 46.5353C6.7361 46.5353 6.66323 46.601 6.66323 50.4135V52.7736H3.33162H1.90735e-06V39.8172ZM9.04296 36.7494C9.04296 31.5086 8.91254 30.272 8.3363 30.049C7.12387 29.58 6.66323 31.3911 6.66323 36.6272C6.66323 42.3001 6.86106 43.1763 8.14199 43.1763C8.98114 43.1763 9.04296 42.7353 9.04296 36.7494ZM19.0546 51.8454C18.7525 51.2764 18.5619 46.2627 18.5619 38.889V26.8607H22.1314H25.701V37.3261C25.701 45.3479 25.8509 47.9981 26.3427 48.6763C27.8187 50.7115 28.0808 49.0823 28.0808 37.8694V26.8607H31.6503H35.2199V39.2413C35.2199 48.2309 35.0635 51.7797 34.6488 52.1978C34.2545 52.5954 31.8286 52.7736 26.8125 52.7736C20.1167 52.7736 19.5086 52.7009 19.0546 51.8454ZM37.5997 40.393C37.5997 31.4035 37.7561 27.8547 38.1708 27.4365C38.9825 26.6182 61.4419 26.6182 62.2536 27.4365C62.6683 27.8547 62.8247 31.4035 62.8247 40.393V52.7736H59.2552H55.6856V41.4615C55.6856 30.9465 55.6269 30.1608 54.8527 30.3109C54.0924 30.4583 54.0086 31.4442 53.892 41.623L53.7643 52.7736H50.2034H46.6426V41.7954C46.6426 33.2718 46.5017 30.6993 46.0126 30.2899C44.5099 29.0326 44.2629 30.662 44.2629 41.8326V52.7736H40.9313H37.5997V40.393ZM65.6804 40.3139C65.6804 28.4865 65.7271 27.829 66.601 27.3574C67.9321 26.6392 80.5681 26.7072 81.2914 27.4365C81.7061 27.8547 81.8626 31.4035 81.8626 40.393V52.7736H78.3147H74.7669L74.6261 49.5345C74.5177 47.0383 74.3217 46.2954 73.7715 46.2954C73.2213 46.2954 73.0253 47.0383 72.9168 49.5345L72.7761 52.7736H69.2283H65.6804V40.3139ZM74.4854 36.658C74.4854 31.4683 74.3692 30.4597 73.7715 30.4597C73.1843 30.4597 73.0336 31.4768 72.9227 36.1902C72.7797 42.2658 72.9363 43.3769 73.8907 43.0562C74.3254 42.9101 74.4854 41.1887 74.4854 36.658Z" fill="white"/>
<path d="M96.3645 41.5261C96.0635 41.1604 95.5371 39.8884 95.4326 38.5553C95.2492 36.2135 95.7273 36.3841 92.8814 33.5028C90.5864 31.1793 89.0935 29.653 88.0618 26.5924C86.437 21.7726 84.3109 20.5092 81.7073 20.5092C79.2963 20.5092 75.4575 19.7296 73.404 18.8229C72.4307 18.3932 70.542 17.0486 69.2068 15.8349L66.7791 13.6282L65.6639 14.5126C64.1833 15.6868 62.0987 15.6281 58.9585 14.3239C56.0354 13.1098 55.4838 13.1844 55.4838 14.0379C55.4838 15.044 54.7088 15.0896 53.6027 14.3589C51.2752 12.8212 53.2408 10.3182 57.153 10.5145C59.4824 10.6303 59.5923 10.6508 59.5923 9.69139C59.5923 8.55694 58.8981 8.15475 56.94 8.15475C56.0995 8.15475 55.3668 7.87321 54.6354 7.16665C54.1866 6.89411 53.7859 6.68182 53.5294 6.06076C53.743 5.27241 53.9624 4.77057 54.379 4.39147C54.7841 3.59503 55.2648 2.73552 56.1192 2.19165C56.611 1.87856 57.0902 0.903471 57.4649 0.518912C57.7964 0.178722 57.7824 0.0722175 58.3531 0.547176C58.9397 1.0354 59.1677 1.03805 59.7351 0.563256C60.3071 0.0846141 60.4914 0.100513 60.8999 0.66373C61.1668 1.03172 62.1325 2.02782 63.4629 2.34316C67.1708 3.22201 70.4488 5.19627 76.42 10.1625C84.0273 16.4896 84.7853 16.2169 88.3975 16.5824C92.637 17.0113 94.2316 15.4225 97.2725 8.66035C99.2691 4.22057 100.562 2.51797 102.976 0.981898C105.026 -0.322881 106.815 -0.371582 106.958 1.1029C107.094 2.51702 107.079 3.19297 104.057 5.0314C100.697 7.07596 99.7018 8.11868 97.5885 12.5318C96.5002 14.8043 95.179 16.8341 94.2184 17.7091L92.6384 19.1483L93.6882 21.2871C94.4653 22.8702 94.7896 24.3472 94.9369 26.9732C95.2102 31.8468 94.8854 31.3895 96.5176 32.9511C97.2766 33.6773 97.5744 33.0964 97.883 34.559C98.1759 35.9469 98.2519 36.6383 98.8907 38.3838C99.2904 39.4759 98.9243 38.8455 98.7731 40.3887C98.658 41.5629 98.9317 41.1239 98.4228 42.348C98.2009 42.8818 96.6655 41.8918 96.3645 41.5261Z" fill="white"/>
<path d="M91.0321 51.7443C91.0322 52.1311 90.9568 52.5141 90.8101 52.8715C90.6633 53.2289 90.4482 53.5536 90.177 53.8272C89.9058 54.1007 89.5838 54.3177 89.2293 54.4658C88.8749 54.6138 88.4951 54.69 88.1114 54.69C87.7278 54.69 87.3479 54.6138 86.9935 54.4658C86.6391 54.3177 86.3171 54.1007 86.0459 53.8272C85.7746 53.5536 85.5595 53.2289 85.4128 52.8715C85.2661 52.5141 85.1906 52.1311 85.1908 51.7443C85.1906 51.3575 85.2661 50.9745 85.4128 50.6171C85.5595 50.2597 85.7746 49.935 86.0459 49.6614C86.3171 49.3879 86.6391 49.1709 86.9935 49.0228C87.3479 48.8748 87.7278 48.7986 88.1114 48.7986C88.4951 48.7986 88.8749 48.8748 89.2293 49.0228C89.5838 49.1709 89.9058 49.3879 90.177 49.6614C90.4482 49.935 90.6633 50.2597 90.8101 50.6171C90.9568 50.9745 91.0322 51.3575 91.0321 51.7443V51.7443Z" stroke="white" stroke-width="4"/>
</g>
<defs>
<clipPath id="clip0">
<rect width="107" height="55" fill="white"/>
</clipPath>
</defs>
</svg>
