<svg width="138" height="56" viewBox="0 0 138 56" fill="none" xmlns="http://www.w3.org/2000/svg">
<path d="M134.464 4.83993C133.512 7.07978 135.36 10.6292 132.697 11.325L49.9743 11.0467L41.1973 11.2297L39.9551 13.1359L29.6017 52.5553L28.1677 53.2091L14.194 52.9632L12.8815 50.2277C8.99164 34.1562 4.61549 18.3514 0.871841 2.2989C4.45215 1.82806 8.62316 1.55547 12.2585 2.32369C16.0478 14.0643 17.7705 26.5597 21.0716 38.7159L21.5047 39.0686L22.5265 37.9096L31.4365 2.846L32.4336 2.00725L126.384 2.15975C129.075 3.00231 134.696 0.234435 134.464 4.83993Z" fill="white"/>
<path d="M134.593 19.9813C134.827 22.6195 132.325 25.0386 130.5 26.5788C127.094 25.0614 122.891 21.9314 118.705 24.1941C117.396 25.1796 116.477 26.9486 117.432 28.4069C123.229 32.7589 133.573 30.3875 135.754 39.2153C136.83 43.0145 135.968 47.8735 132.969 50.5652C128.137 55.0887 121.13 56.0456 114.376 54.0955C111.413 52.7688 108.101 51.8767 105.535 49.4938C106.52 46.7927 108.256 44.4823 110.12 42.4655C113.886 43.4015 117.168 46.4667 121.822 45.9196C123.36 45.8948 125.296 44.8273 126.055 43.1765C126.604 36.6 118.236 39.141 114.386 37.2691C110.469 36.3274 107.375 32.9743 106.604 29.2152C105.846 25.2845 106.931 21.5158 109.92 18.9881C116.921 14.1825 127.934 14.9412 134.593 19.9813Z" fill="white"/>
<path d="M102.617 18.0712C102.896 29.3638 102.849 41.0911 102.53 52.3227C98.9039 53.2606 94.8222 52.4485 90.9816 52.4409C87.88 47.254 85.9806 42.2939 82.4231 37.067C81.9729 36.8744 81.7697 37.4768 81.4544 37.595L81.1619 52.0958C78.7402 53.4264 75.3176 52.2178 72.5084 52.7516L71.8911 50.8396C72.0051 40.2066 71.5891 28.5937 72.4457 18.1741C75.5835 17.5127 79.1239 17.4955 82.6453 17.6347L83.6653 18.3381L91.5553 32.5739L92.6512 32.3623C92.3796 28.1667 93.2894 22.854 93.0596 18.1932C95.7719 17.0323 99.7225 17.6671 102.617 18.0712Z" fill="white"/>
<path d="M54.468 36.5695C54.2287 33.7692 53.0796 31.0642 51.9115 28.6395C50.3293 30.8221 50.3863 33.9141 49.7025 36.4799C50.996 37.6713 53.0397 37.0842 54.468 36.5695ZM62.8347 26.6227L69.1615 52.3227C66.4587 53.3197 62.9791 52.5686 59.904 52.6144C58.3864 50.4813 59.3418 46.3981 55.847 45.9482C52.5971 46.1465 48.3862 44.8712 46.183 47.4561L44.6673 52.723C41.7176 53.1024 38.1695 53.1253 35.4648 52.4161C38.4298 40.7823 41.8467 29.3448 45.4061 17.9092C49.7956 17.0438 55.4576 17.3678 60.0066 17.9035L62.8347 26.6227Z" fill="white"/>
<path d="M136.035 14.0452C135.964 14.0128 135.864 13.9956 135.731 13.9956H135.609V14.5694H135.807C135.93 14.5732 136.023 14.5465 136.09 14.5046C136.158 14.4493 136.192 14.3693 136.192 14.2625C136.194 14.1538 136.137 14.0795 136.035 14.0452ZM135.108 15.6064V13.6678C135.231 13.6639 135.408 13.6678 135.649 13.6678C135.888 13.6716 136.023 13.6678 136.044 13.6678C136.204 13.6792 136.331 13.7116 136.43 13.7726C136.603 13.8622 136.686 14.0204 136.686 14.2301C136.686 14.3959 136.644 14.5141 136.553 14.5808C136.464 14.6552 136.354 14.699 136.221 14.7086C136.344 14.7353 136.434 14.7772 136.496 14.8248C136.61 14.9221 136.675 15.0708 136.673 15.2671L136.675 15.4368C136.673 15.4558 136.68 15.4749 136.673 15.4978C136.673 15.513 136.68 15.5359 136.68 15.5511L136.694 15.614L136.215 15.6045C136.2 15.5492 136.189 15.4558 136.185 15.3357C136.183 15.2232 136.171 15.147 136.151 15.1013C136.124 15.0307 136.075 14.9812 136.01 14.9545C135.968 14.943 135.909 14.9297 135.83 14.9259H135.719L135.609 14.9221V15.6083L135.108 15.6064ZM134.861 13.6277C134.582 13.906 134.443 14.2434 134.443 14.6399C134.443 15.0364 134.585 15.3834 134.868 15.6693C135.151 15.9514 135.486 16.0906 135.879 16.0849C136.276 16.0925 136.62 15.9438 136.905 15.6617C137.178 15.3777 137.321 15.0326 137.321 14.6399C137.321 14.2434 137.178 13.906 136.901 13.6296C136.61 13.3342 136.276 13.1893 135.879 13.1893C135.486 13.1893 135.144 13.3342 134.861 13.6277ZM137.104 15.8943C136.76 16.2221 136.354 16.3918 135.879 16.388C135.385 16.3823 134.971 16.2164 134.633 15.8809C134.302 15.5435 134.139 15.1222 134.132 14.6323C134.132 14.1214 134.316 13.6944 134.68 13.3589C135.022 13.0349 135.419 12.8805 135.883 12.8748C136.361 12.8748 136.781 13.0463 137.112 13.3875C137.457 13.7383 137.626 14.1481 137.626 14.6323C137.628 15.1318 137.457 15.5568 137.104 15.8943Z" fill="white"/>
</svg>
